<svg xmlns="http://www.w3.org/2000/svg" width="476.882" height="312.597" viewBox="0 0 476.882 312.597">
  <g id="Сгруппировать_1" data-name="Сгруппировать 1" transform="translate(-277.902 -290.904)">
    <path id="Контур_19" data-name="Контур 19" d="M502.593,453.907v-7.223s31.517-17.728,57.124,0v6.566Z" transform="translate(-158.364 -147.901)" fill="#535461"/>
    <path id="Контур_20" data-name="Контур 20" d="M789.529,453.907v-7.223s31.517-17.728,57.125,0v6.566Z" transform="translate(-158.364 -147.901)" fill="#535461"/>
    <path id="Контур_21" data-name="Контур 21" d="M597.144,453.251h-30.86s-7.879-9.192-34.143-8.536-31.517,8.536-31.517,8.536-25.936,17.4-31.845,39.068c0,0-31.845,95.536-32.5,170.389s28.234,85.358,43.336,87.328,42.023-.657,68.287-66.974l11.162-38.741s1.97-22.981,25.607-8.536,44.649-7.879,44.649-7.879h88.641s29.547,18.385,56.468,3.94c0,0,10.506-13.789,20.355,32.83,0,0,30.2,95.864,76.823,86.015s41.366-89.955,41.366-89.955-6.238-122.456-31.845-165.792c0,0-24.623-44.977-41.038-46.947,0,0-35.457-6.566-49.245-.657l-7.879,6.566Z" transform="translate(-158.364 -147.901)" fill="#e6e6e6"/>
    <circle id="Эллипс_2" data-name="Эллипс 2" cx="57.125" cy="57.125" r="57.125" transform="translate(310.086 312.573)" fill="#535461"/>
    <circle id="Эллипс_3" data-name="Эллипс 3" cx="57.125" cy="57.125" r="57.125" transform="translate(608.183 312.573)" fill="#535461"/>
    <path id="Контур_22" data-name="Контур 22" d="M535.528,504.86l-7.617,6.737a3.533,3.533,0,0,1-4.669,0l-7.63-6.737a3.526,3.526,0,0,1-1.2-2.626V483.7a3.533,3.533,0,0,1,3.533-3.526h15.266a3.526,3.526,0,0,1,3.533,3.519v18.53A3.526,3.526,0,0,1,535.528,504.86Z" transform="translate(-158.364 -147.901)" fill="#e6e6e6"/>
    <path id="Контур_23" data-name="Контур 23" d="M535.528,530.329l-7.617-6.73a3.532,3.532,0,0,0-4.668,0l-7.63,6.737a3.526,3.526,0,0,0-1.2,2.626v18.516a3.526,3.526,0,0,0,3.519,3.533h15.279a3.526,3.526,0,0,0,3.533-3.519V532.969A3.526,3.526,0,0,0,535.528,530.329Z" transform="translate(-158.364 -147.901)" fill="#e6e6e6"/>
    <path id="Контур_24" data-name="Контур 24" d="M512.843,527.565l6.737-7.63a3.533,3.533,0,0,0,0-4.669l-6.737-7.63a3.532,3.532,0,0,0-2.626-1.195H491.7a3.532,3.532,0,0,0-3.526,3.533v15.266a3.526,3.526,0,0,0,3.519,3.533h18.529A3.526,3.526,0,0,0,512.843,527.565Z" transform="translate(-158.364 -147.901)" fill="#e6e6e6"/>
    <path id="Контур_25" data-name="Контур 25" d="M538.312,527.565l-6.724-7.636a3.526,3.526,0,0,1,0-4.668l6.737-7.63a3.526,3.526,0,0,1,2.626-1.195h18.516A3.526,3.526,0,0,1,563,509.955v15.279a3.526,3.526,0,0,1-3.519,3.533H540.958a3.526,3.526,0,0,1-2.646-1.2Z" transform="translate(-158.364 -147.901)" fill="#e6e6e6"/>
    <circle id="Эллипс_4" data-name="Эллипс 4" cx="41.366" cy="41.366" r="41.366" transform="translate(403.324 390.708)" fill="#535461"/>
    <circle id="Эллипс_5" data-name="Эллипс 5" cx="41.366" cy="41.366" r="41.366" transform="translate(546.463 390.708)" fill="#535461"/>
    <circle id="Эллипс_6" data-name="Эллипс 6" cx="27.577" cy="27.577" r="27.577" transform="translate(417.113 404.497)" fill="#e6e6e6"/>
    <path id="Контур_26" data-name="Контур 26" d="M603.054,599.016a19.042,19.042,0,1,1,19.041-19.041A19.042,19.042,0,0,1,603.054,599.016Zm0-36.77a17.728,17.728,0,1,0,17.728,17.728,17.728,17.728,0,0,0-17.728-17.728Z" transform="translate(-158.364 -147.901)" fill="#535461"/>
    <circle id="Эллипс_7" data-name="Эллипс 7" cx="27.577" cy="27.577" r="27.577" transform="translate(560.252 404.497)" fill="#e6e6e6"/>
    <path id="Контур_27" data-name="Контур 27" d="M746.193,599.016a19.042,19.042,0,1,1,19.042-19.042,19.041,19.041,0,0,1-19.042,19.042Zm0-36.77a17.728,17.728,0,1,0,17.728,17.728,17.728,17.728,0,0,0-17.728-17.728Z" transform="translate(-158.364 -147.901)" fill="#535461"/>
    <circle id="Эллипс_8" data-name="Эллипс 8" cx="11.819" cy="11.819" r="11.819" transform="translate(505.754 424.851)" fill="#535461"/>
    <circle id="Эллипс_9" data-name="Эллипс 9" cx="2.58" cy="2.58" r="2.58" transform="translate(496.929 394.642)" fill="#535461"/>
    <circle id="Эллипс_10" data-name="Эллипс 10" cx="2.58" cy="2.58" r="2.58" transform="translate(506.595 394.642)" fill="#535461"/>
    <circle id="Эллипс_11" data-name="Эллипс 11" cx="2.58" cy="2.58" r="2.58" transform="translate(505.308 406.887)" fill="#535461"/>
    <circle id="Эллипс_12" data-name="Эллипс 12" cx="2.626" cy="2.626" r="2.626" transform="translate(514.29 407.124)" fill="#535461"/>
    <circle id="Эллипс_13" data-name="Эллипс 13" cx="2.58" cy="2.58" r="2.58" transform="translate(523.351 406.887)" fill="#535461"/>
    <circle id="Эллипс_14" data-name="Эллипс 14" cx="2.58" cy="2.58" r="2.58" transform="translate(501.44 401.09)" fill="#535461"/>
    <circle id="Эллипс_15" data-name="Эллипс 15" cx="2.626" cy="2.626" r="2.626" transform="translate(509.694 401.214)" fill="#535461"/>
    <circle id="Эллипс_16" data-name="Эллипс 16" cx="2.626" cy="2.626" r="2.626" transform="translate(518.23 401.214)" fill="#535461"/>
    <circle id="Эллипс_17" data-name="Эллипс 17" cx="2.58" cy="2.58" r="2.58" transform="translate(527.218 401.09)" fill="#535461"/>
    <circle id="Эллипс_18" data-name="Эллипс 18" cx="2.626" cy="2.626" r="2.626" transform="translate(514.29 394.648)" fill="#535461"/>
    <circle id="Эллипс_19" data-name="Эллипс 19" cx="2.626" cy="2.626" r="2.626" transform="translate(523.482 394.648)" fill="#535461"/>
    <circle id="Эллипс_20" data-name="Эллипс 20" cx="2.58" cy="2.58" r="2.58" transform="translate(531.086 394.642)" fill="#535461"/>
    <path id="Контур_28" data-name="Контур 28" d="M577.774,458.847a4.586,4.586,0,0,0-4.581,4.581v13.789a4.586,4.586,0,0,0,4.581,4.581h3.283a4.586,4.586,0,0,0,4.581-4.581V463.428a4.586,4.586,0,0,0-4.581-4.581Z" transform="translate(-158.364 -147.901)" fill="#535461"/>
    <path id="Контур_29" data-name="Контур 29" d="M769.5,458.847a4.586,4.586,0,0,0-4.581,4.581v13.789A4.586,4.586,0,0,0,769.5,481.8h3.283a4.586,4.586,0,0,0,4.581-4.581V463.428a4.586,4.586,0,0,0-4.581-4.581Z" transform="translate(-158.364 -147.901)" fill="#535461"/>
    <circle id="Эллипс_21" data-name="Эллипс 21" cx="15.759" cy="15.759" r="15.759" transform="translate(650.206 319.138)" fill="#e6e6e6"/>
    <circle id="Эллипс_22" data-name="Эллипс 22" cx="15.759" cy="15.759" r="15.759" transform="translate(616.719 352.625)" fill="#e6e6e6"/>
    <circle id="Эллипс_23" data-name="Эллипс 23" cx="15.759" cy="15.759" r="15.759" transform="translate(685.006 350.655)" fill="#e6e6e6"/>
    <circle id="Эллипс_24" data-name="Эллипс 24" cx="15.759" cy="15.759" r="15.759" transform="translate(652.833 385.456)" fill="#e6e6e6"/>
    <path id="Контур_30" data-name="Контур 30" d="M607.485,449.654A13.3,13.3,0,0,0,594.2,462.935V521.7a13.3,13.3,0,0,0,13.281,13.281H742.417A13.3,13.3,0,0,0,755.7,521.7V462.936a13.3,13.3,0,0,0-13.281-13.282Z" transform="translate(-158.364 -147.901)" fill="#535461"/>
    <path id="Контур_31" data-name="Контур 31" d="M835.034,490.02H813.665l10.317-17.685Zm-19.083-1.313h16.713l-8.645-13.832Z" transform="translate(-158.364 -147.901)" fill="#535461"/>
    <path id="Контур_32" data-name="Контур 32" d="M799.706,524.164H781.978V508.4h17.728Zm-16.415-1.313h15.1V509.718h-15.1Z" transform="translate(-158.364 -147.901)" fill="#535461"/>
    <path id="Контур_33" data-name="Контур 33" d="M859.129,524.164a9.849,9.849,0,1,1,9.849-9.849A9.849,9.849,0,0,1,859.129,524.164Zm0-18.385a8.536,8.536,0,1,0,8.536,8.536,8.536,8.536,0,0,0-8.536-8.536Z" transform="translate(-158.364 -147.901)" fill="#535461"/>
    <rect id="Прямоугольник_1" data-name="Прямоугольник 1" width="1.313" height="20.893" transform="translate(660.581 394.29) rotate(-45)" fill="#535461"/>
    <rect id="Прямоугольник_2" data-name="Прямоугольник 2" width="20.898" height="1.313" transform="translate(660.589 407.802) rotate(-43.734)" fill="#535461"/>
  </g>
</svg>
